<svg width="18" height="23" viewBox="0 0 18 23" fill="none" xmlns="http://www.w3.org/2000/svg">
<path fill-rule="evenodd" clip-rule="evenodd" d="M9.48428 22.2441C9.3829 22.2441 9.28152 22.2441 9.18013 22.2441C9.01478 22.1097 8.81316 22.0025 8.68957 21.837C6.6503 19.1065 4.62015 16.3693 2.58951 13.6323C1.19345 11.7507 0.615837 9.65126 0.926664 7.32038C1.14056 5.71634 1.77405 4.2896 2.81123 3.05384C4.03015 1.60142 5.56968 0.647325 7.42313 0.222844C7.8582 0.123198 8.30456 0.0729147 8.74572 -0.00012207C9.1223 -0.00012207 9.49878 -0.00012207 9.87531 -0.00012207C9.93124 0.0121502 9.98658 0.0306674 10.0432 0.0357715C11.2103 0.140304 12.3225 0.450588 13.3394 1.02885C15.8856 2.47677 17.3822 4.66168 17.725 7.57414C17.9796 9.73765 17.4267 11.7258 16.1338 13.4834C14.0938 16.2567 12.0348 19.0161 9.97681 21.7762C9.84333 21.955 9.64985 22.0892 9.48428 22.2441ZM13.8761 8.48405C13.8863 5.97534 11.8516 3.9245 9.33406 3.90577C6.8197 3.88709 4.75507 5.93537 4.74491 8.45864C4.73476 10.9673 6.76941 13.0182 9.28698 13.0369C11.8013 13.0556 13.8659 11.0073 13.8761 8.48405Z" fill="#272243"/>
</svg>
