<svg width="56" height="57" viewBox="0 0 56 57" fill="none" xmlns="http://www.w3.org/2000/svg">
<g filter="url(#filter0_d_43_426)">
<circle cx="33" cy="19.9999" r="20" fill="#EDA306"/>
</g>
<path fill-rule="evenodd" clip-rule="evenodd" d="M38.9739 23.3926C38.5121 23.0793 37.9054 23.0808 37.4453 23.3966L36.7828 23.8513C36.0449 24.3578 35.0636 24.3303 34.3543 23.7844C33.6859 23.2699 33.0478 22.7183 32.442 22.1337C31.8573 21.5278 31.3057 20.8898 30.7912 20.2213C30.2453 19.5121 30.2178 18.5308 30.7243 17.7928L31.179 17.1303C31.4947 16.6702 31.4964 16.0635 31.183 15.6017L29.2866 12.8071C28.7628 12.0351 27.7431 11.7765 26.916 12.208L26.9155 12.2082C25.2446 13.08 24.5437 15.0957 25.3092 16.8178C26.4111 19.2967 27.8906 21.5642 29.6762 23.5499L31.0257 24.8994C33.0115 26.6849 35.2789 28.1645 37.7579 29.2664C39.48 30.032 41.4957 29.331 42.3674 27.6602L42.3676 27.6597C42.7992 26.8326 42.5406 25.8129 41.7686 25.289L38.9739 23.3926Z" fill="white"/>
<defs>
<filter id="filter0_d_43_426" x="0" y="-0.00012207" width="56" height="57" filterUnits="userSpaceOnUse" color-interpolation-filters="sRGB">
<feFlood flood-opacity="0" result="BackgroundImageFix"/>
<feColorMatrix in="SourceAlpha" type="matrix" values="0 0 0 0 0 0 0 0 0 0 0 0 0 0 0 0 0 0 127 0" result="hardAlpha"/>
<feOffset dx="-5" dy="9"/>
<feGaussianBlur stdDeviation="4"/>
<feColorMatrix type="matrix" values="0 0 0 0 0 0 0 0 0 0 0 0 0 0 0 0 0 0 0.188235 0"/>
<feBlend mode="normal" in2="BackgroundImageFix" result="effect1_dropShadow_43_426"/>
<feBlend mode="normal" in="SourceGraphic" in2="effect1_dropShadow_43_426" result="shape"/>
</filter>
</defs>
</svg>
