<svg width="22" height="15" viewBox="0 0 22 15" fill="none" xmlns="http://www.w3.org/2000/svg">
<path d="M0.466211 4.8898C0.466211 1.99314 2.09788 0.544803 5.36121 0.544803C8.62454 0.544803 10.2562 2.21314 10.2562 5.5498C10.2562 8.8498 7.94621 11.9481 3.32621 14.8448L0.0812111 13.6348L3.49121 9.1798L3.38121 8.9048C1.43788 8.50147 0.466211 7.16314 0.466211 4.8898ZM11.4662 4.8898C11.4662 1.99314 13.0979 0.544803 16.3612 0.544803C19.6245 0.544803 21.2562 2.21314 21.2562 5.5498C21.2562 8.8498 18.9462 11.9481 14.3262 14.8448L11.0812 13.6348L14.4912 9.1798L14.3812 8.9048C12.4379 8.50147 11.4662 7.16314 11.4662 4.8898Z" fill="#4832DC"/>
</svg>
