<svg width="68" height="38" viewBox="0 0 68 38" fill="none" xmlns="http://www.w3.org/2000/svg">
<path fill-rule="evenodd" clip-rule="evenodd" d="M32.6878 22.8681C29.4667 24.1081 26.4504 25.2821 23.4234 26.4279C22.3958 26.8166 21.3648 27.2933 20.2939 27.4522C17.8174 27.8198 15.5101 27.1695 13.5579 25.6251C9.37251 22.3139 5.25138 18.921 1.10483 15.5606C0.819185 15.3291 0.515123 15.1129 0.262813 14.8486C-0.132044 14.4348 -0.0863704 13.8381 0.429669 13.6346C2.47191 12.8291 4.42796 11.75 6.69231 11.6181C9.03493 11.4817 11.1379 12.1148 13.052 13.4617C15.1208 14.9177 17.214 16.3389 19.2898 17.785C19.5892 17.9937 19.829 18.1112 20.2162 17.9182C23.9386 16.064 27.6731 14.2341 31.4031 12.3952C31.5217 12.3368 31.6298 12.257 31.8197 12.1401C31.5889 11.973 31.4193 11.838 31.2384 11.7213C28.1288 9.71237 25.0174 7.7066 21.9076 5.69787C20.8939 5.04334 20.8961 4.49967 21.9131 3.87958C23.0518 3.18545 24.2095 2.52078 25.3252 1.79166C25.8812 1.4283 26.3659 1.38391 26.9958 1.6191C31.7504 3.39393 36.5213 5.12585 41.2797 6.89165C41.8141 7.08982 42.2478 7.08079 42.7709 6.81688C45.4781 5.45035 48.1915 4.09266 50.9338 2.79814C55.4435 0.669157 60.0862 0.422739 64.8204 1.9808C66.698 2.59869 67.838 4.06577 67.8944 5.88149C67.9491 7.64232 66.8971 9.19302 65.0915 9.91256C59.5228 12.1322 53.9438 14.3258 48.3799 16.5572C48.0138 16.7041 47.6373 17.0222 47.439 17.362C43.6168 23.9145 39.8106 30.477 36.0329 37.0557C35.6369 37.7455 35.1916 38.0212 34.3936 37.9986C32.4622 37.9441 30.5283 37.9824 28.5953 37.9802C27.3739 37.9789 27.1284 37.6107 27.5685 36.4446C29.1658 32.2115 30.7644 27.9785 32.3621 23.7456C32.4488 23.5163 32.5328 23.2861 32.6878 22.8681V22.8681ZM49.1602 14.4179C49.3458 14.404 49.3957 14.4118 49.4365 14.3958C54.5409 12.3762 59.6497 10.3674 64.744 8.32262C65.779 7.90714 66.3105 7.05388 66.2665 5.92217C66.2228 4.80003 65.6644 3.92781 64.5915 3.63001C63.0715 3.2079 61.5181 2.80788 59.9541 2.66257C56.6369 2.35465 53.5561 3.24897 50.5847 4.72526C40.5984 9.68694 30.5811 14.5862 20.5867 19.5317C19.8946 19.874 19.3857 19.8282 18.7606 19.3834C16.4742 17.7568 14.1653 16.1605 11.837 14.5943C8.76436 12.5275 5.52981 12.9305 2.50098 14.6133C2.98939 15.0177 3.46234 15.4159 3.94191 15.8056C7.44184 18.6482 10.8933 21.5535 14.462 24.307C16.6364 25.9847 19.0783 26.4956 21.7832 25.3827C25.2868 23.941 28.8433 22.626 32.3944 21.3028C33.1436 21.0236 33.6591 20.6595 33.8461 19.8503C33.9534 19.3849 34.1398 18.9252 34.3676 18.5045C34.5194 18.2242 34.7625 17.9058 35.0404 17.7944C39.5396 15.9934 44.0479 14.2151 48.567 12.4649C48.8241 12.3653 49.3053 12.4463 49.476 12.6325C49.6521 12.8246 49.6409 13.2583 49.5911 13.567C49.5477 13.839 49.3376 14.0841 49.1602 14.4179V14.4179ZM46.9626 14.8591C46.6963 14.9385 46.5858 14.9624 46.4823 15.0035C43.085 16.35 39.6841 17.6876 36.2991 19.0644C36.0114 19.1814 35.7302 19.5219 35.6149 19.8234C33.6025 25.0832 31.6163 30.353 29.6256 35.6212C29.5471 35.8289 29.4832 36.0422 29.3749 36.3645C30.9032 36.3645 32.3262 36.3378 33.7473 36.3774C34.3213 36.3934 34.648 36.2225 34.9442 35.7074C38.82 28.9714 42.7218 22.2504 46.6157 15.5247C46.7175 15.3488 46.8041 15.1643 46.9626 14.8591V14.8591ZM23.5982 4.76739C23.7249 4.88655 23.782 4.95929 23.8553 5.00662C26.9677 7.0159 30.0778 9.02923 33.2057 11.0146C33.4057 11.1415 33.7834 11.1341 34.0157 11.038C34.7579 10.7302 35.4723 10.3536 36.1948 9.99851C37.4029 9.40512 38.6088 8.80767 39.8741 8.18334C39.7345 8.0791 39.6895 8.02698 39.633 8.00617C35.3174 6.41496 31.002 4.8243 26.6817 3.24598C26.506 3.1817 26.2441 3.16384 26.0944 3.24966C25.2635 3.72592 24.4546 4.24085 23.5982 4.76739V4.76739Z" fill="black"/>
<path fill-rule="evenodd" clip-rule="evenodd" d="M46.9627 14.8591C46.8043 15.1643 46.7176 15.3488 46.6157 15.5247C42.7219 22.2504 38.8201 28.9714 34.9442 35.7073C34.6481 36.2225 34.3214 36.3934 33.7473 36.3774C32.3263 36.3378 30.9032 36.3645 29.375 36.3645C29.4833 36.0422 29.5472 35.8289 29.6257 35.6212C31.6163 30.353 33.6024 25.083 35.615 19.8234C35.7303 19.5219 36.0115 19.1814 36.2992 19.0644C39.6842 17.6876 43.085 16.35 46.4824 15.0035C46.5859 14.9624 46.6964 14.9385 46.9627 14.8591V14.8591Z" fill="#27C7DC"/>
<path fill-rule="evenodd" clip-rule="evenodd" d="M23.5981 4.76739C24.4547 4.24104 25.2634 3.72592 26.0944 3.24966C26.2441 3.16384 26.506 3.1817 26.6817 3.24598C31.0019 4.8243 35.3175 6.41514 39.6329 8.00617C39.6895 8.02698 39.7344 8.0791 39.874 8.18334C38.609 8.80767 37.4028 9.40512 36.1947 9.99851C35.4722 10.3534 34.7578 10.73 34.0156 11.038C33.7834 11.1341 33.4057 11.1415 33.2057 11.0146C30.0777 9.02941 26.9677 7.0159 23.8552 5.00662C23.7818 4.95929 23.7247 4.88655 23.5981 4.76739V4.76739Z" fill="#27C7DC"/>
</svg>
